<?xml version="1.0" standalone="no"?>
<!DOCTYPE svg PUBLIC "-//W3C//DTD SVG 20010904//EN"
 "http://www.w3.org/TR/2001/REC-SVG-20010904/DTD/svg10.dtd">
<svg version="1.0" xmlns="http://www.w3.org/2000/svg"
 width="337.000000pt" height="175.000000pt" viewBox="0 0 337.000000 175.000000"
 preserveAspectRatio="xMidYMid meet">

<g transform="translate(0.000000,175.000000) scale(0.100000,-0.100000)"
fill="#fff" stroke="none">
<path d="M732 1567 l-52 -53 0 -132 c0 -73 2 -132 5 -132 2 0 38 20 79 45 l75
46 -6 99 c-3 55 -3 100 0 100 4 0 59 -34 122 -76 l115 -75 0 -237 c0 -226 1
-238 20 -250 20 -12 20 -10 20 245 l0 258 -151 103 c-83 57 -156 105 -162 108
-7 2 -36 -19 -65 -49z"/>
<path d="M643 1144 l-143 -94 0 -120 c0 -113 1 -120 20 -120 19 0 20 7 20 109
l0 109 83 53 c45 29 92 59 104 66 l21 14 1 -429 2 -429 -32 -7 c-17 -3 -53 -6
-80 -6 l-49 0 0 177 0 177 52 53 52 53 -100 0 -100 0 -47 -48 -47 -48 0 -201
0 -201 -37 -13 c-109 -35 -203 -72 -203 -80 0 -5 578 -8 1433 -7 l1432 3 3 32
3 33 -844 0 -845 0 -123 29 c-68 16 -179 35 -246 42 l-123 12 0 254 0 254 60
26 60 26 0 128 0 127 -85 61 c-47 34 -89 61 -93 60 -4 0 -71 -43 -149 -95z"/>
<path d="M2005 1031 c-61 -12 -107 -35 -142 -72 -48 -51 -65 -102 -71 -210 -8
-163 39 -260 150 -310 49 -22 68 -24 276 -27 l222 -4 0 56 0 56 -50 0 c-27 0
-50 2 -50 4 0 2 12 28 26 57 59 116 35 309 -48 386 -58 55 -205 85 -313 64z
m174 -120 c65 -46 94 -147 72 -253 -22 -105 -59 -138 -156 -138 -115 0 -158
56 -159 205 -1 130 30 186 117 205 44 9 97 2 126 -19z"/>
<path d="M2755 1029 c-92 -7 -139 -24 -177 -65 -48 -51 -52 -74 -56 -321 l-4
-233 66 0 66 0 0 130 0 130 185 0 185 0 0 55 0 55 -185 0 -185 0 0 24 c0 42
22 86 49 101 25 13 136 23 264 24 l57 1 0 50 c0 33 -4 50 -12 50 -111 4 -187
4 -253 -1z"/>
<path d="M1265 858 l115 -173 0 -137 0 -138 65 0 65 0 0 136 0 136 87 126 c47
70 102 148 120 175 l35 47 -80 0 -79 0 -70 -112 c-38 -62 -74 -113 -79 -112
-5 0 -38 50 -74 112 l-65 112 -78 0 -77 0 115 -172z"/>
</g>
</svg>
